<svg width="30" height="30" viewBox="0 0 30 30" fill="none" xmlns="http://www.w3.org/2000/svg">
<mask id="mask0_82598_1731" style="mask-type:alpha" maskUnits="userSpaceOnUse" x="0" y="0" width="30" height="30">
<rect width="30" height="30" fill="#403F3F"/>
</mask>
<g mask="url(#mask0_82598_1731)">
<path d="M7.31226 21.375C8.37476 20.5625 9.56226 19.9219 10.8748 19.4532C12.1873 18.9844 13.5623 18.75 14.9998 18.75C16.4373 18.75 17.8123 18.9844 19.1248 19.4532C20.4373 19.9219 21.6248 20.5625 22.6873 21.375C23.4164 20.5209 23.9841 19.5521 24.3904 18.4688C24.7966 17.3854 24.9998 16.2292 24.9998 15C24.9998 12.2292 24.0258 9.86982 22.0779 7.92191C20.13 5.97399 17.7706 5.00003 14.9998 5.00003C12.2289 5.00003 9.86955 5.97399 7.92163 7.92191C5.97371 9.86982 4.99976 12.2292 4.99976 15C4.99976 16.2292 5.20288 17.3854 5.60913 18.4688C6.01538 19.5521 6.58309 20.5209 7.31226 21.375ZM14.9998 16.25C13.7706 16.25 12.7341 15.8282 11.8904 14.9844C11.0466 14.1407 10.6248 13.1042 10.6248 11.875C10.6248 10.6459 11.0466 9.60941 11.8904 8.76566C12.7341 7.92191 13.7706 7.50003 14.9998 7.50003C16.2289 7.50003 17.2654 7.92191 18.1091 8.76566C18.9529 9.60941 19.3748 10.6459 19.3748 11.875C19.3748 13.1042 18.9529 14.1407 18.1091 14.9844C17.2654 15.8282 16.2289 16.25 14.9998 16.25ZM14.9998 27.5C13.2706 27.5 11.6456 27.1719 10.1248 26.5157C8.60392 25.8594 7.28101 24.9688 6.15601 23.8438C5.03101 22.7188 4.14038 21.3959 3.48413 19.875C2.82788 18.3542 2.49976 16.7292 2.49976 15C2.49976 13.2709 2.82788 11.6459 3.48413 10.125C4.14038 8.6042 5.03101 7.28128 6.15601 6.15628C7.28101 5.03128 8.60392 4.14066 10.1248 3.48441C11.6456 2.82816 13.2706 2.50003 14.9998 2.50003C16.7289 2.50003 18.3539 2.82816 19.8748 3.48441C21.3956 4.14066 22.7185 5.03128 23.8435 6.15628C24.9685 7.28128 25.8591 8.6042 26.5154 10.125C27.1716 11.6459 27.4998 13.2709 27.4998 15C27.4998 16.7292 27.1716 18.3542 26.5154 19.875C25.8591 21.3959 24.9685 22.7188 23.8435 23.8438C22.7185 24.9688 21.3956 25.8594 19.8748 26.5157C18.3539 27.1719 16.7289 27.5 14.9998 27.5ZM14.9998 25C16.1039 25 17.1456 24.8386 18.1248 24.5157C19.1039 24.1927 19.9998 23.7292 20.8123 23.125C19.9998 22.5209 19.1039 22.0573 18.1248 21.7344C17.1456 21.4115 16.1039 21.25 14.9998 21.25C13.8956 21.25 12.8539 21.4115 11.8748 21.7344C10.8956 22.0573 9.99976 22.5209 9.18726 23.125C9.99976 23.7292 10.8956 24.1927 11.8748 24.5157C12.8539 24.8386 13.8956 25 14.9998 25ZM14.9998 13.75C15.5414 13.75 15.9893 13.5729 16.3435 13.2188C16.6977 12.8646 16.8748 12.4167 16.8748 11.875C16.8748 11.3334 16.6977 10.8854 16.3435 10.5313C15.9893 10.1771 15.5414 10 14.9998 10C14.4581 10 14.0102 10.1771 13.656 10.5313C13.3018 10.8854 13.1248 11.3334 13.1248 11.875C13.1248 12.4167 13.3018 12.8646 13.656 13.2188C14.0102 13.5729 14.4581 13.75 14.9998 13.75Z" fill="#403F3F"/>
</g>
</svg>
