<svg width="29" height="20" viewBox="0 0 29 20" fill="none" xmlns="http://www.w3.org/2000/svg">
<path d="M8.74976 20C7.70809 20 6.82267 19.6354 6.09351 18.9062C5.36434 18.1771 4.99976 17.2916 4.99976 16.25H1.87476L2.43726 13.75H5.96851C6.32267 13.3541 6.73934 13.0468 7.21851 12.8281C7.69767 12.6093 8.20809 12.5 8.74976 12.5C9.29142 12.5 9.80184 12.6093 10.281 12.8281C10.7602 13.0468 11.1768 13.3541 11.531 13.75H16.7498L19.3748 2.49997H5.68726L5.81226 1.96872C5.93726 1.38539 6.22371 0.911428 6.67163 0.546844C7.11955 0.182261 7.64559 -3.05176e-05 8.24976 -3.05176e-05H22.4998L21.3435 4.99997H24.9998L28.7498 9.99997L27.4998 16.25H24.9998C24.9998 17.2916 24.6352 18.1771 23.906 18.9062C23.1768 19.6354 22.2914 20 21.2498 20C20.2081 20 19.3227 19.6354 18.5935 18.9062C17.8643 18.1771 17.4998 17.2916 17.4998 16.25H12.4998C12.4998 17.2916 12.1352 18.1771 11.406 18.9062C10.6768 19.6354 9.79142 20 8.74976 20ZM19.906 11.25H25.9373L26.0623 10.5937L23.7498 7.49997H20.781L19.906 11.25ZM19.3123 2.71872L19.3748 2.49997L16.7498 13.75L16.8123 13.5312L17.8748 8.96872L19.3123 2.71872ZM0.624756 11.6562L1.24976 9.15622H8.12476L7.49976 11.6562H0.624756ZM3.12476 7.09372L3.74976 4.59372H11.8748L11.2498 7.09372H3.12476ZM8.74976 17.5C9.10392 17.5 9.4008 17.3802 9.64038 17.1406C9.87996 16.901 9.99976 16.6041 9.99976 16.25C9.99976 15.8958 9.87996 15.5989 9.64038 15.3593C9.4008 15.1198 9.10392 15 8.74976 15C8.39559 15 8.09871 15.1198 7.85913 15.3593C7.61955 15.5989 7.49976 15.8958 7.49976 16.25C7.49976 16.6041 7.61955 16.901 7.85913 17.1406C8.09871 17.3802 8.39559 17.5 8.74976 17.5ZM21.2498 17.5C21.6039 17.5 21.9008 17.3802 22.1404 17.1406C22.38 16.901 22.4998 16.6041 22.4998 16.25C22.4998 15.8958 22.38 15.5989 22.1404 15.3593C21.9008 15.1198 21.6039 15 21.2498 15C20.8956 15 20.5987 15.1198 20.3591 15.3593C20.1195 15.5989 19.9998 15.8958 19.9998 16.25C19.9998 16.6041 20.1195 16.901 20.3591 17.1406C20.5987 17.3802 20.8956 17.5 21.2498 17.5Z" fill="#808080"/>
</svg>
