<svg width="26" height="24" viewBox="0 0 26 24" fill="none" xmlns="http://www.w3.org/2000/svg">
<path d="M13.0005 23.2501L11.188 21.6251C9.08382 19.7292 7.34424 18.0938 5.96924 16.7188C4.59424 15.3438 3.50049 14.1094 2.68799 13.0157C1.87549 11.9219 1.30778 10.9167 0.984863 10.0001C0.661947 9.08339 0.500488 8.14589 0.500488 7.18756C0.500488 5.22923 1.15674 3.59381 2.46924 2.28131C3.78174 0.968811 5.41716 0.312561 7.37549 0.312561C8.45882 0.312561 9.49007 0.541728 10.4692 1.00006C11.4484 1.45839 12.2922 2.10423 13.0005 2.93756C13.7088 2.10423 14.5526 1.45839 15.5317 1.00006C16.5109 0.541728 17.5422 0.312561 18.6255 0.312561C20.5838 0.312561 22.2192 0.968811 23.5317 2.28131C24.8442 3.59381 25.5005 5.22923 25.5005 7.18756C25.5005 8.14589 25.339 9.08339 25.0161 10.0001C24.6932 10.9167 24.1255 11.9219 23.313 13.0157C22.5005 14.1094 21.4067 15.3438 20.0317 16.7188C18.6567 18.0938 16.9172 19.7292 14.813 21.6251L13.0005 23.2501ZM13.0005 19.8751C15.0005 18.0834 16.6463 16.5469 17.938 15.2657C19.2297 13.9844 20.2505 12.8699 21.0005 11.9219C21.7505 10.974 22.2713 10.1303 22.563 9.39069C22.8547 8.6511 23.0005 7.91673 23.0005 7.18756C23.0005 5.93756 22.5838 4.89589 21.7505 4.06256C20.9172 3.22923 19.8755 2.81256 18.6255 2.81256C17.6463 2.81256 16.7401 3.0886 15.9067 3.64069C15.0734 4.19277 14.5005 4.89589 14.188 5.75006H11.813C11.5005 4.89589 10.9276 4.19277 10.0942 3.64069C9.26091 3.0886 8.35466 2.81256 7.37549 2.81256C6.12549 2.81256 5.08382 3.22923 4.25049 4.06256C3.41716 4.89589 3.00049 5.93756 3.00049 7.18756C3.00049 7.91673 3.14632 8.6511 3.43799 9.39069C3.72966 10.1303 4.25049 10.974 5.00049 11.9219C5.75049 12.8699 6.77132 13.9844 8.06299 15.2657C9.35466 16.5469 11.0005 18.0834 13.0005 19.8751Z" fill="#808080"/>
</svg>
