<svg width="26" height="26" viewBox="0 0 26 26" fill="none" xmlns="http://www.w3.org/2000/svg">
<path d="M7.74951 25.4999C7.06201 25.4999 6.47347 25.2551 5.98389 24.7656C5.4943 24.276 5.24951 23.6874 5.24951 22.9999C5.24951 22.3124 5.4943 21.7239 5.98389 21.2343C6.47347 20.7447 7.06201 20.4999 7.74951 20.4999C8.43701 20.4999 9.02555 20.7447 9.51514 21.2343C10.0047 21.7239 10.2495 22.3124 10.2495 22.9999C10.2495 23.6874 10.0047 24.276 9.51514 24.7656C9.02555 25.2551 8.43701 25.4999 7.74951 25.4999ZM20.2495 25.4999C19.562 25.4999 18.9735 25.2551 18.4839 24.7656C17.9943 24.276 17.7495 23.6874 17.7495 22.9999C17.7495 22.3124 17.9943 21.7239 18.4839 21.2343C18.9735 20.7447 19.562 20.4999 20.2495 20.4999C20.937 20.4999 21.5256 20.7447 22.0151 21.2343C22.5047 21.7239 22.7495 22.3124 22.7495 22.9999C22.7495 23.6874 22.5047 24.276 22.0151 24.7656C21.5256 25.2551 20.937 25.4999 20.2495 25.4999ZM6.68701 5.49994L9.68701 11.7499H18.437L21.8745 5.49994H6.68701ZM5.49951 2.99994H23.937C24.4162 2.99994 24.7808 3.21348 25.0308 3.64056C25.2808 4.06765 25.2912 4.49994 25.062 4.93744L20.6245 12.9374C20.3953 13.3541 20.0881 13.677 19.7026 13.9062C19.3172 14.1354 18.8953 14.2499 18.437 14.2499H9.12451L7.74951 16.7499H22.7495V19.2499H7.74951C6.81201 19.2499 6.10368 18.8385 5.62451 18.0156C5.14535 17.1926 5.12451 16.3749 5.56201 15.5624L7.24951 12.4999L2.74951 2.99994H0.249512V0.499939H4.31201L5.49951 2.99994Z" fill="#808080"/>
</svg>
