<svg width="24" height="24" viewBox="0 0 24 24" fill="none" xmlns="http://www.w3.org/2000/svg">
<path d="M10.9641 19.0466C9.98013 18.4286 8.93313 17.5916 7.86213 16.4636C3.98313 12.3806 3.33513 8.93958 3.25413 7.43058C3.23313 7.01658 2.87913 6.69858 2.46513 6.72258C2.05113 6.74358 1.73313 7.09758 1.75713 7.51158C1.85313 9.35958 2.63913 13.1426 6.77313 17.4956C7.92813 18.7106 9.07113 19.6286 10.1661 20.3156C10.5171 20.5346 10.9791 20.4296 11.2011 20.0786C11.4201 19.7306 11.3151 19.2656 10.9641 19.0466ZM19.7601 15.1646L17.8491 14.0666C16.7511 13.4336 15.3891 13.6166 14.5131 14.5346C14.5131 14.5346 14.1501 15.0356 13.8111 14.9726C13.4121 14.8946 12.5391 14.5526 11.1081 13.0436C9.68013 11.5406 9.32913 10.6136 9.26313 10.1606C9.21513 9.84858 9.52413 9.52458 9.52413 9.52458C10.4901 8.50458 10.5591 6.91158 9.74913 5.76558L8.48913 3.98358C7.47513 2.54958 5.44713 2.30958 4.22013 3.59958C3.93513 3.89958 3.94713 4.37358 4.24713 4.65858C4.54713 4.94358 5.02113 4.93158 5.30613 4.63158C5.82813 4.08258 6.74913 4.12458 7.26213 4.84758L8.52213 6.62958C8.94513 7.22658 8.87913 8.02158 8.43513 8.48958C8.18013 8.75658 7.99713 8.90658 7.86213 9.28458C7.76313 9.56058 7.71213 9.92358 7.77813 10.3766C7.91013 11.2676 8.49213 12.4676 10.0221 14.0756C11.5461 15.6776 12.6951 16.3106 13.5711 16.4516C14.0211 16.5236 14.3871 16.4666 14.6631 16.3586C15.0621 16.2026 15.3261 15.8606 15.6021 15.5696C15.9861 15.1646 16.5891 15.0716 17.1021 15.3686L19.0131 16.4696C19.8351 16.9436 19.9941 18.1046 19.3821 18.7496L17.9631 20.2466C17.6841 20.5406 17.3931 20.6966 17.1081 20.7266C16.5621 20.7806 15.6981 20.7956 14.6181 20.5676C14.2131 20.4836 13.8141 20.7416 13.7301 21.1466C13.6461 21.5516 13.9041 21.9506 14.3091 22.0346C15.5571 22.2956 16.5771 22.2836 17.2521 22.2176C17.9991 22.1426 18.6051 21.7466 19.0461 21.2786L20.4651 19.7816C21.7731 18.4046 21.3921 16.1066 19.7601 15.1646ZM13.6161 6.80658C13.8891 6.92658 14.6331 7.31958 15.6531 8.33658C16.6761 9.35958 17.0661 10.1066 17.1861 10.3796C17.2281 10.4786 17.2491 10.5326 17.2491 10.5326C17.3601 10.8386 17.6481 11.0306 17.9541 11.0306C18.0381 11.0306 18.1221 11.0156 18.2061 10.9856C18.5961 10.8476 18.8001 10.4156 18.6591 10.0256C18.6531 10.0106 18.6201 9.92358 18.5571 9.77358C18.3651 9.33858 17.8701 8.43258 16.7121 7.27158C15.5601 6.11958 14.6571 5.62458 14.2251 5.43258C14.0781 5.36658 14.0061 5.33658 13.9971 5.33358C13.6131 5.18058 13.1781 5.36658 13.0221 5.75058C12.8691 6.13458 13.0551 6.57258 13.4391 6.72558C13.4391 6.73158 13.4961 6.75558 13.6161 6.80658ZM22.2351 10.8776C22.2321 10.8626 22.2111 10.7126 22.1511 10.4576C22.0431 10.0076 21.8121 9.28158 21.3081 8.36658C20.7081 7.27458 19.8771 6.19458 18.8361 5.15358C16.3221 2.64258 14.2011 1.97958 13.4061 1.81158C13.2381 1.77558 13.1511 1.76058 13.1511 1.76058C12.7461 1.67958 12.3501 1.94658 12.2691 2.35158C12.1881 2.75658 12.4521 3.15258 12.8601 3.23358C12.8631 3.23358 12.9411 3.24858 13.0941 3.28158C13.6131 3.38958 15.4821 3.92658 17.7711 6.21858C19.9341 8.38158 20.5311 10.1486 20.6871 10.8086C20.7321 10.9976 20.7471 11.1026 20.7471 11.1026C20.8011 11.4746 21.1221 11.7416 21.4881 11.7416C21.5241 11.7416 21.5631 11.7386 21.5991 11.7326C22.0131 11.6696 22.2981 11.2886 22.2351 10.8776Z" fill="black"/>
</svg>
