<svg width="23" height="28" viewBox="0 0 23 28" fill="none" xmlns="http://www.w3.org/2000/svg">
<path d="M8.75 27.7501V25.2501H2.5C1.8125 25.2501 1.22396 25.0053 0.734375 24.5157C0.244792 24.0261 0 23.4376 0 22.7501V5.25006C0 4.56256 0.244792 3.97402 0.734375 3.48444C1.22396 2.99485 1.8125 2.75006 2.5 2.75006H8.75V0.250061H11.25V27.7501H8.75ZM2.5 22.7501H8.75V20.2501H5V17.7501H8.75V15.2501H5V12.7501H8.75V10.2501H5V7.75006H8.75V5.25006H2.5V22.7501ZM13.75 5.25006V2.75006H20C20.6875 2.75006 21.276 2.99485 21.7656 3.48444C22.2552 3.97402 22.5 4.56256 22.5 5.25006V22.7501C22.5 23.4376 22.2552 24.0261 21.7656 24.5157C21.276 25.0053 20.6875 25.2501 20 25.2501H13.75V22.7501H20V5.25006H13.75ZM13.75 15.2501V12.7501H17.5V15.2501H13.75ZM13.75 10.2501V7.75006H17.5V10.2501H13.75Z" fill="#808080"/>
</svg>
