<svg width="96" height="96" viewBox="0 0 96 96" fill="none" xmlns="http://www.w3.org/2000/svg">
<path fill-rule="evenodd" clip-rule="evenodd" d="M95.9995 48C95.9995 48.61 95.9895 49.22 95.9595 49.83V49.89C95.9395 50.46 95.9095 51.03 95.8695 51.59C95.8695 51.71 95.8495 51.82 95.8395 51.93C95.7995 52.41 95.7595 52.89 95.6995 53.37C95.6995 53.48 95.6795 53.59 95.6595 53.71C95.5995 54.25 95.5295 54.78 95.4495 55.31C95.4495 55.33 95.4495 55.34 95.4495 55.35C95.3595 55.94 95.2595 56.54 95.1395 57.13C95.0395 57.69 94.9195 58.25 94.7895 58.8C94.7695 58.89 94.7495 58.98 94.7195 59.07C94.6095 59.57 94.4795 60.07 94.3495 60.56C94.3495 60.6 94.3295 60.65 94.3095 60.69C94.1695 61.22 94.0095 61.75 93.8495 62.28C93.8495 62.3 93.8495 62.32 93.8295 62.34C93.6495 62.9 93.4695 63.47 93.2695 64.02C93.0795 64.55 92.8895 65.08 92.6795 65.6C92.6495 65.67 92.6195 65.75 92.5895 65.82C92.3895 66.32 92.1895 66.81 91.9695 67.3C91.7395 67.84 91.4895 68.37 91.2295 68.9C90.9795 69.42 90.7195 69.94 90.4395 70.46C90.1695 70.97 89.8895 71.48 89.5895 71.99C89.2995 72.49 88.9995 72.99 88.6895 73.48C88.4095 73.94 88.1095 74.39 87.8095 74.84C87.7895 74.87 87.7695 74.91 87.7395 74.94C87.3695 75.49 86.9895 76.02 86.5895 76.55C86.5595 76.61 86.5195 76.66 86.4695 76.72C86.1295 77.18 85.7695 77.64 85.4095 78.08C85.3795 78.13 85.3395 78.18 85.2995 78.23C84.9695 78.63 84.6395 79.02 84.2995 79.41C82.4895 81.51 80.4895 83.45 78.3295 85.21C77.8595 85.59 77.3795 85.97 76.8895 86.34C75.9195 87.08 74.9095 87.78 73.8795 88.44C73.5895 88.63 73.2895 88.82 72.9795 89C70.5095 90.51 67.8795 91.81 65.1395 92.85C64.5795 93.07 64.0195 93.27 63.4495 93.46C63.1695 93.56 62.8895 93.65 62.6095 93.74C62.5695 93.76 62.5195 93.77 62.4795 93.78C62.4095 93.8 62.3495 93.82 62.2895 93.84C61.7995 93.99 61.2995 94.14 60.7995 94.27C60.7595 94.29 60.7295 94.3 60.6895 94.31C60.1295 94.46 59.5695 94.6 58.9995 94.73C58.4295 94.87 57.8695 94.99 57.2895 95.1C57.2095 95.12 57.1295 95.14 57.0495 95.15C56.5095 95.25 55.9695 95.35 55.4195 95.43C54.9895 95.5 54.5595 95.56 54.1295 95.61C54.0795 95.62 54.0395 95.63 53.9995 95.62C53.7095 95.67 53.4195 95.7 53.1295 95.73C52.5795 95.79 52.0295 95.84 51.4695 95.87C50.9595 95.91 50.4495 95.94 49.9295 95.96C49.8895 95.96 49.8595 95.96 49.8195 95.96C49.2195 95.99 48.6195 96 48.0095 96C47.5995 96 47.1795 95.99 46.7695 95.98C46.4595 95.98 46.1595 95.97 45.8495 95.95C45.4995 95.94 45.1595 95.92 44.8195 95.89C43.8395 95.83 42.8595 95.74 41.8895 95.61C41.6295 95.58 41.3595 95.54 41.0995 95.5C40.9195 95.48 40.7295 95.45 40.5495 95.42C38.6195 95.12 36.7195 94.7 34.8695 94.18C34.4895 94.07 34.1095 93.96 33.7295 93.84C33.4895 93.77 33.2595 93.69 33.0195 93.61C31.8595 93.23 30.7195 92.81 29.5995 92.34C29.2795 92.21 28.9695 92.08 28.6595 91.94C24.2495 90 20.1895 87.41 16.5995 84.29C16.3095 84.04 16.0195 83.79 15.7395 83.53C15.4495 83.27 15.1695 83.01 14.8895 82.74C14.6195 82.48 14.3395 82.21 14.0695 81.94C13.5295 81.4 12.9995 80.84 12.4795 80.27C12.2295 80 11.9795 79.72 11.7295 79.43C11.7295 79.43 11.7295 79.42 11.7295 79.41C11.4695 79.12 11.2295 78.83 10.9795 78.53C9.29953 76.5 7.78953 74.33 6.46953 72.04C6.29953 71.75 6.12953 71.46 5.96953 71.16C5.79953 70.86 5.63953 70.57 5.48953 70.27C5.34953 70 5.20953 69.74 5.07953 69.47C4.90953 69.13 4.73953 68.78 4.57953 68.44C4.43953 68.14 4.28953 67.83 4.15953 67.52C4.01953 67.21 3.87953 66.89 3.74953 66.58C3.58953 66.21 3.44953 65.85 3.29953 65.48C3.07953 64.9 2.85953 64.3 2.64953 63.71C2.53953 63.38 2.42953 63.06 2.32953 62.73C2.21953 62.4 2.11953 62.07 2.01953 61.74C1.91953 61.41 1.82953 61.08 1.73953 60.75C1.64953 60.41 1.55953 60.08 1.46953 59.74C1.37953 59.4 1.29953 59.07 1.22953 58.73C1.14953 58.39 1.07953 58.05 1.00953 57.71C0.879531 57.09 0.769531 56.46 0.659531 55.84C0.569531 55.27 0.489531 54.69 0.409531 54.12C0.409531 54.06 0.389531 54 0.389531 53.94C0.309531 53.3 0.239531 52.66 0.189531 52.01C0.139531 51.37 0.0995312 50.72 0.0695313 50.07C0.0495313 50.07 0.0395312 50.06 0.0195312 50.06V48C0.0195312 47.23 0.0395313 46.46 0.0695313 45.7C0.0995312 45.23 0.119531 44.77 0.159531 44.31C0.189531 43.9 0.229531 43.49 0.269531 43.09C0.309531 42.69 0.349531 42.29 0.409531 41.88C0.439531 41.61 0.479531 41.33 0.519531 41.05C0.559531 40.75 0.609531 40.45 0.659531 40.15C0.849531 38.96 1.08953 37.79 1.37953 36.63C1.44953 36.33 1.51953 36.04 1.59953 35.75C1.77953 35.04 1.98953 34.33 2.20953 33.63C2.31953 33.28 2.42953 32.93 2.54953 32.59C3.24953 30.52 4.08953 28.51 5.05953 26.57C5.20953 26.26 5.36953 25.95 5.52953 25.64C5.52953 25.62 5.55953 25.6 5.56953 25.58C5.72953 25.27 5.89953 24.96 6.06953 24.66C6.23953 24.35 6.40953 24.05 6.58953 23.75C6.90953 23.2 7.23953 22.66 7.57953 22.13C7.75953 21.85 7.93953 21.58 8.11953 21.31C9.04953 19.93 10.0395 18.59 11.1095 17.32C11.3095 17.07 11.5195 16.83 11.7295 16.59C12.3795 15.83 13.0595 15.09 13.7695 14.38C13.9995 14.14 14.2395 13.9 14.4895 13.66C14.8995 13.25 15.3195 12.86 15.7495 12.47C16.0195 12.22 16.2995 11.97 16.5795 11.74C17.2795 11.12 17.9995 10.53 18.7395 9.96C18.9595 9.79 19.1895 9.62 19.4195 9.46C20.2795 8.81 21.1595 8.2 22.0695 7.62C22.3695 7.43 22.6695 7.24 22.9795 7.05C23.5895 6.67 24.2095 6.31 24.8395 5.96C25.1495 5.79 25.4695 5.62 25.7895 5.45C26.1095 5.29 26.4295 5.12 26.7495 4.96C27.0795 4.8 27.3995 4.65 27.7295 4.49C28.0595 4.34 28.3895 4.19 28.7195 4.04C29.2795 3.8 29.8395 3.56 30.4195 3.33C30.5395 3.28 30.6495 3.24 30.7695 3.19C31.0895 3.07 31.4195 2.95 31.7495 2.83C32.0995 2.7 32.4395 2.58 32.7795 2.47C34.1695 2.01 35.5795 1.61 37.0195 1.27C37.0695 1.25 37.1195 1.24 37.1795 1.23C38.5595 0.92 39.9695 0.66 41.3995 0.46C41.7695 0.41 42.1495 0.36 42.5195 0.32C44.3295 0.11 46.1595 0 48.0195 0C48.5895 0 49.1495 0.01 49.7095 0.03C49.8295 0.03 49.9495 0.04 50.0695 0.05C50.6895 0.07 51.2995 0.11 51.8995 0.16C52.4895 0.2 53.0595 0.26 53.6395 0.33C53.7995 0.33 53.9695 0.36 54.1395 0.39C54.6395 0.45 55.1395 0.52 55.6295 0.6C55.7095 0.61 55.7795 0.62 55.8595 0.64C56.4295 0.73 56.9995 0.84 57.5695 0.95C58.1395 1.06 58.6995 1.19 59.2595 1.33C59.3495 1.33 59.4395 1.37 59.5295 1.39C60.0795 1.52 60.6195 1.67 61.1595 1.82C61.1795 1.83 61.1995 1.83 61.2195 1.84C61.7195 1.98 62.2195 2.13 62.7195 2.3C62.8095 2.32 62.9095 2.35 62.9995 2.38C63.9295 2.69 64.8495 3.02 65.7495 3.38L66.7095 3.77C67.2995 4.02 67.8795 4.28 68.4595 4.56C68.9395 4.78 69.4095 5.01 69.8795 5.25C69.9195 5.27 69.9595 5.3 70.0095 5.32C70.5295 5.59 71.0495 5.87 71.5595 6.16C72.0195 6.41 72.4695 6.67 72.9095 6.95C73.3095 7.19 73.7195 7.45 74.1095 7.7C74.3595 7.87 74.6095 8.03 74.8595 8.2C75.8395 8.86 76.7895 9.56 77.7195 10.29C78.0895 10.58 78.4595 10.88 78.8195 11.19C79.0295 11.36 79.2295 11.53 79.4295 11.71C79.7195 11.96 80.0095 12.21 80.2895 12.47C80.4995 12.66 80.7095 12.85 80.9095 13.05C81.6095 13.69 82.2795 14.37 82.9295 15.06C83.0995 15.24 83.2695 15.42 83.4295 15.61C83.7395 15.93 84.0295 16.26 84.3095 16.59C84.4695 16.76 84.6095 16.93 84.7495 17.11C85.0295 17.43 85.2995 17.75 85.5495 18.08C85.5695 18.08 85.5695 18.1 85.5795 18.11C85.8895 18.49 86.1895 18.88 86.4795 19.28C87.4095 20.51 88.2695 21.79 89.0695 23.11C89.2595 23.41 89.4395 23.72 89.6095 24.02C90.4295 25.44 91.1795 26.9 91.8495 28.4C92.0995 28.97 92.3495 29.54 92.5795 30.13C92.6995 30.42 92.8095 30.71 92.9195 31C93.0395 31.3 93.1395 31.59 93.2495 31.89C93.7395 33.26 94.1595 34.65 94.5195 36.06C94.6195 36.42 94.7095 36.79 94.7895 37.16C95.0395 38.22 95.2495 39.29 95.4195 40.38C95.4595 40.63 95.4995 40.89 95.5295 41.14C95.7995 42.98 95.9595 44.86 95.9995 46.76C95.9995 47.17 96.0195 47.59 96.0195 48H95.9995Z" fill="white"/>
<path fill-rule="evenodd" clip-rule="evenodd" d="M95.9995 48C95.9995 48.61 95.9895 49.22 95.9595 49.83V49.89C95.9395 50.46 95.9095 51.03 95.8695 51.59C95.8695 51.71 95.8495 51.82 95.8395 51.93C95.7995 52.41 95.7595 52.89 95.6995 53.37C95.6995 53.48 95.6795 53.59 95.6595 53.71C95.5995 54.25 95.5295 54.78 95.4495 55.31C95.4495 55.33 95.4495 55.34 95.4495 55.35C95.3595 55.94 95.2595 56.54 95.1395 57.13C95.0395 57.69 94.9195 58.25 94.7895 58.8C94.7695 58.89 94.7495 58.98 94.7195 59.07C94.6095 59.57 94.4795 60.07 94.3495 60.56C94.3495 60.6 94.3295 60.65 94.3095 60.69C94.1695 61.22 94.0095 61.75 93.8495 62.28C93.8495 62.3 93.8495 62.32 93.8295 62.34C93.6495 62.9 93.4695 63.47 93.2695 64.02C93.0795 64.55 92.8895 65.08 92.6795 65.6C92.6495 65.67 92.6195 65.75 92.5895 65.82C92.3895 66.32 92.1895 66.81 91.9695 67.3C91.7395 67.84 91.4895 68.37 91.2295 68.9C90.9795 69.42 90.7195 69.94 90.4395 70.46C90.1695 70.97 89.8895 71.48 89.5895 71.99C89.2995 72.49 88.9995 72.99 88.6895 73.48C88.4095 73.94 88.1095 74.39 87.8095 74.84C87.7895 74.87 87.7695 74.91 87.7395 74.94C87.3695 75.49 86.9895 76.02 86.5895 76.55C86.5595 76.61 86.5195 76.66 86.4695 76.72C86.1295 77.18 85.7695 77.64 85.4095 78.08C85.3795 78.13 85.3395 78.18 85.2995 78.23C84.9695 78.63 84.6395 79.02 84.2995 79.41C82.4895 81.51 80.4895 83.45 78.3295 85.21C77.8595 85.59 77.3795 85.97 76.8895 86.34C75.9195 87.08 74.9095 87.78 73.8795 88.44C73.5895 88.63 73.2895 88.82 72.9795 89C70.5095 90.51 67.8795 91.81 65.1395 92.85C64.5795 93.07 64.0195 93.27 63.4495 93.46C63.1695 93.56 62.8895 93.65 62.6095 93.74C62.5695 93.76 62.5195 93.77 62.4795 93.78C62.4095 93.8 62.3495 93.82 62.2895 93.84C61.7995 93.99 61.2995 94.14 60.7995 94.27C60.7595 94.29 60.7295 94.3 60.6895 94.31C60.1295 94.46 59.5695 94.6 58.9995 94.73C58.4295 94.87 57.8695 94.99 57.2895 95.1C57.2095 95.12 57.1295 95.14 57.0495 95.15C56.5095 95.25 55.9695 95.35 55.4195 95.43C54.9895 95.5 54.5595 95.56 54.1295 95.61C54.0795 95.62 54.0395 95.63 53.9995 95.62C53.7095 95.67 53.4195 95.7 53.1295 95.73C52.5795 95.79 52.0295 95.84 51.4695 95.87C50.9595 95.91 50.4495 95.94 49.9295 95.96C49.8895 95.96 49.8595 95.96 49.8195 95.96C49.2195 95.99 48.6195 96 48.0095 96C47.5995 96 47.1795 95.99 46.7695 95.98C46.4595 95.98 46.1595 95.97 45.8495 95.95C45.4995 95.94 45.1595 95.92 44.8195 95.89C43.8395 95.83 42.8595 95.74 41.8895 95.61C41.6295 95.58 41.3595 95.54 41.0995 95.5C40.9195 95.48 40.7295 95.45 40.5495 95.42C38.6195 95.12 36.7195 94.7 34.8695 94.18C34.4895 94.07 34.1095 93.96 33.7295 93.84C33.4895 93.77 33.2595 93.69 33.0195 93.61C31.8595 93.23 30.7195 92.81 29.5995 92.34C29.2795 92.21 28.9695 92.08 28.6595 91.94C24.2495 90 20.1895 87.41 16.5995 84.29C16.3095 84.04 16.0195 83.79 15.7395 83.53C15.4495 83.27 15.1695 83.01 14.8895 82.74C14.6195 82.48 14.3395 82.21 14.0695 81.94C13.5295 81.4 12.9995 80.84 12.4795 80.27C12.2295 80 11.9795 79.72 11.7295 79.43C11.7295 79.43 11.7295 79.42 11.7295 79.41C11.4695 79.12 11.2295 78.83 10.9795 78.53C9.29953 76.5 7.78953 74.33 6.46953 72.04C6.29953 71.75 6.12953 71.46 5.96953 71.16C5.79953 70.86 5.63953 70.57 5.48953 70.27C5.34953 70 5.20953 69.74 5.07953 69.47C4.90953 69.13 4.73953 68.78 4.57953 68.44C4.43953 68.14 4.28953 67.83 4.15953 67.52C4.01953 67.21 3.87953 66.89 3.74953 66.58C3.58953 66.21 3.44953 65.85 3.29953 65.48C3.07953 64.9 2.85953 64.3 2.64953 63.71C2.53953 63.38 2.42953 63.06 2.32953 62.73C2.21953 62.4 2.11953 62.07 2.01953 61.74C1.91953 61.41 1.82953 61.08 1.73953 60.75C1.64953 60.41 1.55953 60.08 1.46953 59.74C1.37953 59.4 1.29953 59.07 1.22953 58.73C1.14953 58.39 1.07953 58.05 1.00953 57.71C0.879531 57.09 0.769531 56.46 0.659531 55.84C0.569531 55.27 0.489531 54.69 0.409531 54.12C0.409531 54.06 0.389531 54 0.389531 53.94C0.309531 53.3 0.239531 52.66 0.189531 52.01C0.139531 51.37 0.0995312 50.72 0.0695313 50.07C0.0495313 50.07 0.0395312 50.06 0.0195312 50.06V48C0.0195312 47.23 0.0395313 46.46 0.0695313 45.7C0.0995312 45.23 0.119531 44.77 0.159531 44.31C0.189531 43.9 0.229531 43.49 0.269531 43.09C0.309531 42.69 0.349531 42.29 0.409531 41.88C0.439531 41.61 0.479531 41.33 0.519531 41.05C0.559531 40.75 0.609531 40.45 0.659531 40.15C0.849531 38.96 1.08953 37.79 1.37953 36.63C1.44953 36.33 1.51953 36.04 1.59953 35.75C1.77953 35.04 1.98953 34.33 2.20953 33.63C2.31953 33.28 2.42953 32.93 2.54953 32.59C3.24953 30.52 4.08953 28.51 5.05953 26.57C5.20953 26.26 5.36953 25.95 5.52953 25.64C5.52953 25.62 5.55953 25.6 5.56953 25.58C5.72953 25.27 5.89953 24.96 6.06953 24.66C6.23953 24.35 6.40953 24.05 6.58953 23.75C6.90953 23.2 7.23953 22.66 7.57953 22.13C7.75953 21.85 7.93953 21.58 8.11953 21.31C9.04953 19.93 10.0395 18.59 11.1095 17.32C11.3095 17.07 11.5195 16.83 11.7295 16.59C12.3795 15.83 13.0595 15.09 13.7695 14.38C13.9995 14.14 14.2395 13.9 14.4895 13.66C14.8995 13.25 15.3195 12.86 15.7495 12.47C16.0195 12.22 16.2995 11.97 16.5795 11.74C17.2795 11.12 17.9995 10.53 18.7395 9.96C18.9595 9.79 19.1895 9.62 19.4195 9.46C20.2795 8.81 21.1595 8.2 22.0695 7.62C22.3695 7.43 22.6695 7.24 22.9795 7.05C23.5895 6.67 24.2095 6.31 24.8395 5.96C25.1495 5.79 25.4695 5.62 25.7895 5.45C26.1095 5.29 26.4295 5.12 26.7495 4.96C27.0795 4.8 27.3995 4.65 27.7295 4.49C28.0595 4.34 28.3895 4.19 28.7195 4.04C29.2795 3.8 29.8395 3.56 30.4195 3.33C30.5395 3.28 30.6495 3.24 30.7695 3.19C31.0895 3.07 31.4195 2.95 31.7495 2.83C32.0995 2.7 32.4395 2.58 32.7795 2.47C34.1695 2.01 35.5795 1.61 37.0195 1.27C37.0695 1.25 37.1195 1.24 37.1795 1.23C38.5595 0.92 39.9695 0.66 41.3995 0.46C41.7695 0.41 42.1495 0.36 42.5195 0.32C44.3295 0.11 46.1595 0 48.0195 0C48.5895 0 49.1495 0.01 49.7095 0.03C49.8295 0.03 49.9495 0.04 50.0695 0.05C50.6895 0.07 51.2995 0.11 51.8995 0.16C52.4895 0.2 53.0595 0.26 53.6395 0.33C53.7995 0.33 53.9695 0.36 54.1395 0.39C54.6395 0.45 55.1395 0.52 55.6295 0.6C55.7095 0.61 55.7795 0.62 55.8595 0.64C56.4295 0.73 56.9995 0.84 57.5695 0.95C58.1395 1.06 58.6995 1.19 59.2595 1.33C59.3495 1.33 59.4395 1.37 59.5295 1.39C60.0795 1.52 60.6195 1.67 61.1595 1.82C61.1795 1.83 61.1995 1.83 61.2195 1.84C61.7195 1.98 62.2195 2.13 62.7195 2.3C62.8095 2.32 62.9095 2.35 62.9995 2.38C63.9295 2.69 64.8495 3.02 65.7495 3.38L66.7095 3.77C67.2995 4.02 67.8795 4.28 68.4595 4.56C68.9395 4.78 69.4095 5.01 69.8795 5.25C69.9195 5.27 69.9595 5.3 70.0095 5.32C70.5295 5.59 71.0495 5.87 71.5595 6.16C72.0195 6.41 72.4695 6.67 72.9095 6.95C73.3095 7.19 73.7195 7.45 74.1095 7.7C74.3595 7.87 74.6095 8.03 74.8595 8.2C75.8395 8.86 76.7895 9.56 77.7195 10.29C78.0895 10.58 78.4595 10.88 78.8195 11.19C79.0295 11.36 79.2295 11.53 79.4295 11.71C79.7195 11.96 80.0095 12.21 80.2895 12.47C80.4995 12.66 80.7095 12.85 80.9095 13.05C81.6095 13.69 82.2795 14.37 82.9295 15.06C83.0995 15.24 83.2695 15.42 83.4295 15.61C83.7395 15.93 84.0295 16.26 84.3095 16.59C84.4695 16.76 84.6095 16.93 84.7495 17.11C85.0295 17.43 85.2995 17.75 85.5495 18.08C85.5695 18.08 85.5695 18.1 85.5795 18.11C85.8895 18.49 86.1895 18.88 86.4795 19.28C87.4095 20.51 88.2695 21.79 89.0695 23.11C89.2595 23.41 89.4395 23.72 89.6095 24.02C90.4295 25.44 91.1795 26.9 91.8495 28.4C92.0995 28.97 92.3495 29.54 92.5795 30.13C92.6995 30.42 92.8095 30.71 92.9195 31C93.0395 31.3 93.1395 31.59 93.2495 31.89C93.7395 33.26 94.1595 34.65 94.5195 36.06C94.6195 36.42 94.7095 36.79 94.7895 37.16C95.0395 38.22 95.2495 39.29 95.4195 40.38C95.4595 40.63 95.4995 40.89 95.5295 41.14C95.7995 42.98 95.9595 44.86 95.9995 46.76C95.9995 47.17 96.0195 47.59 96.0195 48H95.9995Z" fill="#FAF1DC"/>
<path fill-rule="evenodd" clip-rule="evenodd" d="M62.4683 93.7799C57.8983 95.2199 53.0383 95.9999 47.9983 95.9999C24.8083 95.9999 5.46828 79.5599 0.988281 57.7099C4.10828 56.4899 7.59828 56.9399 10.0183 62.4999C15.4383 74.9799 17.1083 78.3399 32.7183 74.0199C45.7283 70.4199 68.1583 77.8799 62.4683 93.7799Z" fill="#E1DCD0"/>
<path fill-rule="evenodd" clip-rule="evenodd" d="M42.5 0.320312C41.86 4.70031 39.63 10.0403 33.45 14.5403C20.37 24.0403 33.31 45.5103 7.77 50.1203C4.86 50.6503 2.3 50.5803 0.05 50.0703C0.03 50.0703 0.02 50.0603 0 50.0603V48.0003C0 23.3503 18.58 3.04031 42.5 0.320312Z" fill="#EEE6D1"/>
<path fill-rule="evenodd" clip-rule="evenodd" d="M96.0009 47.9999C96.0009 57.9899 92.9509 67.2599 87.7309 74.9399C83.9309 71.4499 81.7209 66.1299 83.0009 59.5199C86.1809 43.0899 81.6909 43.0199 67.1009 24.9699C59.8209 15.9699 60.2809 8.29988 62.9809 2.37988C82.1509 8.66988 96.0009 26.7199 96.0009 47.9999Z" fill="#EEE6D1"/>
</svg>
